<svg xmlns="http://www.w3.org/2000/svg" width="720" height="520" viewBox="0 0 720 520" role="img" aria-labelledby="title desc">
  <title id="title">Estoque e cadastro</title>
  <desc id="desc">Ilustracao de prateleiras de estoque, caixas, leitor de codigo e ficha de cadastro.</desc>
  <defs>
    <linearGradient id="bg" x1="0" x2="1" y1="0" y2="1">
      <stop offset="0" stop-color="#e9f7f4"/>
      <stop offset="1" stop-color="#f8efe1"/>
    </linearGradient>
    <linearGradient id="box" x1="0" x2="1">
      <stop offset="0" stop-color="#d99b38"/>
      <stop offset="1" stop-color="#b7791f"/>
    </linearGradient>
  </defs>
  <rect width="720" height="520" rx="28" fill="url(#bg)"/>
  <rect x="82" y="112" width="328" height="282" rx="18" fill="#ffffff" stroke="#c9d6df" stroke-width="5"/>
  <rect x="112" y="154" width="268" height="14" rx="7" fill="#146c63"/>
  <rect x="112" y="248" width="268" height="14" rx="7" fill="#146c63"/>
  <rect x="112" y="342" width="268" height="14" rx="7" fill="#146c63"/>
  <g fill="url(#box)">
    <rect x="130" y="183" width="66" height="54" rx="8"/>
    <rect x="210" y="183" width="68" height="54" rx="8"/>
    <rect x="292" y="183" width="66" height="54" rx="8"/>
    <rect x="146" y="277" width="82" height="54" rx="8"/>
    <rect x="244" y="277" width="88" height="54" rx="8"/>
  </g>
  <g fill="none" stroke="#8a5a17" stroke-width="4">
    <path d="M162 183v54"/>
    <path d="M244 183v54"/>
    <path d="M325 183v54"/>
    <path d="M187 277v54"/>
    <path d="M288 277v54"/>
  </g>
  <rect x="434" y="126" width="188" height="236" rx="18" fill="#ffffff" stroke="#c9d6df" stroke-width="5"/>
  <rect x="462" y="160" width="132" height="14" rx="7" fill="#146c63"/>
  <rect x="462" y="196" width="92" height="10" rx="5" fill="#93a4b2"/>
  <rect x="462" y="224" width="118" height="10" rx="5" fill="#93a4b2"/>
  <rect x="462" y="264" width="132" height="54" rx="10" fill="#edf3f6"/>
  <g stroke="#12232e" stroke-width="4">
    <path d="M478 281v20"/>
    <path d="M490 281v20"/>
    <path d="M508 281v20"/>
    <path d="M524 281v20"/>
    <path d="M548 281v20"/>
    <path d="M562 281v20"/>
  </g>
  <circle cx="464" cy="378" r="48" fill="#146c63"/>
  <path d="M440 379l17 17 32-38" fill="none" stroke="#ffffff" stroke-width="9" stroke-linecap="round" stroke-linejoin="round"/>
  <path d="M170 424h362" stroke="#bfd0da" stroke-width="10" stroke-linecap="round"/>
  <circle cx="572" cy="424" r="24" fill="#b7791f"/>
</svg>
